{
  "accessors": [
    {
      "bufferView": 2,
      "componentType": 5126,
      "count": 27301,
      "max": [
        0.8034865260124207,
        0.25826647877693176,
        0.465825617313385
      ],
      "min": [
        -0.10062357783317566,
        -0.12238893657922745,
        -0.33464014530181885
      ],
      "type": "VEC3"
    },
    {
      "bufferView": 2,
      "byteOffset": 327612,
      "componentType": 5126,
      "count": 27301,
      "max": [
        0.999970555305481,
        0.9999997019767761,
        0.9999980926513672
      ],
      "min": [
        -0.9999983906745911,
        -0.9938718676567078,
        -0.9999913573265076
      ],
      "type": "VEC3"
    },
    {
      "bufferView": 1,
      "componentType": 5126,
      "count": 27301,
      "max": [
        0.9989737868309021,
        0.9998992681503296
      ],
      "min": [
        1.9363445971976034e-05,
        4.5815751946065575e-05
      ],
      "type": "VEC2"
    },
    {
      "bufferView": 1,
      "byteOffset": 218408,
      "componentType": 5126,
      "count": 27301,
      "max": [
        0.9989737868309021,
        0.9998992681503296
      ],
      "min": [
        1.9363445971976034e-05,
        4.5815751946065575e-05
      ],
      "type": "VEC2"
    },
    {
      "bufferView": 1,
      "byteOffset": 436816,
      "componentType": 5126,
      "count": 27301,
      "max": [
        0.9989737868309021,
        0.9998992681503296
      ],
      "min": [
        1.9363445971976034e-05,
        4.5815751946065575e-05
      ],
      "type": "VEC2"
    },
    {
      "bufferView": 0,
      "componentType": 5125,
      "count": 124071,
      "type": "SCALAR"
    }
  ],
  "asset": {
    "extras": {
      "author": "khem.ib (https://sketchfab.com/khem_ib)",
      "license": "CC-BY-4.0 (http://creativecommons.org/licenses/by/4.0/)",
      "source": "https://sketchfab.com/3d-models/hispano-olivetti-typewriter-sabadell-catalunya-d174f5bfc0924a91a196f6ee107a8d68",
      "title": "Hispano Olivetti typewriter, Sabadell, Catalunya"
    },
    "generator": "Sketchfab-15.58.0",
    "version": "2.0"
  },
  "bufferViews": [
    {
      "buffer": 0,
      "byteLength": 496284,
      "name": "floatBufferViews",
      "target": 34963
    },
    {
      "buffer": 0,
      "byteLength": 655224,
      "byteOffset": 496284,
      "byteStride": 8,
      "name": "floatBufferViews",
      "target": 34962
    },
    {
      "buffer": 0,
      "byteLength": 655224,
      "byteOffset": 1151508,
      "byteStride": 12,
      "name": "floatBufferViews",
      "target": 34962
    }
  ],
  "buffers": [
    {
      "byteLength": 1806732,
      "uri": "scene.bin"
    }
  ],
  "extensionsUsed": [
    "KHR_materials_unlit"
  ],
  "images": [
    {
      "uri": "textures/material_0_baseColor.jpeg"
    }
  ],
  "materials": [
    {
      "extensions": {
        "KHR_materials_unlit": {}
      },
      "name": "material_0",
      "pbrMetallicRoughness": {
        "baseColorTexture": {
          "index": 0
        },
        "metallicFactor": 0.0
      }
    }
  ],
  "meshes": [
    {
      "name": "Object_0",
      "primitives": [
        {
          "attributes": {
            "NORMAL": 1,
            "POSITION": 0,
            "TEXCOORD_0": 2,
            "TEXCOORD_1": 3,
            "TEXCOORD_2": 4
          },
          "indices": 5,
          "material": 0,
          "mode": 4
        }
      ]
    }
  ],
  "nodes": [
    {
      "children": [
        1
      ],
      "matrix": [
        1.0,
        0.0,
        0.0,
        0.0,
        0.0,
        2.220446049250313e-16,
        -1.0,
        0.0,
        0.0,
        1.0,
        2.220446049250313e-16,
        0.0,
        0.0,
        0.0,
        0.0,
        1.0
      ],
      "name": "Sketchfab_model"
    },
    {
      "children": [
        2
      ],
      "name": "root"
    },
    {
      "children": [
        3
      ],
      "matrix": [
        1.0,
        0.0,
        0.0,
        0.0,
        0.0,
        2.220446049250313e-16,
        1.0,
        0.0,
        0.0,
        -1.0,
        2.220446049250313e-16,
        0.0,
        0.0,
        0.0,
        0.0,
        1.0
      ],
      "name": "GLTF_SceneRootNode"
    },
    {
      "children": [
        4
      ],
      "name": "_0"
    },
    {
      "mesh": 0,
      "name": "Object_4"
    }
  ],
  "samplers": [
    {
      "magFilter": 9729,
      "minFilter": 9987,
      "wrapS": 10497,
      "wrapT": 10497
    }
  ],
  "scene": 0,
  "scenes": [
    {
      "name": "Sketchfab_Scene",
      "nodes": [
        0
      ]
    }
  ],
  "textures": [
    {
      "sampler": 0,
      "source": 0
    }
  ]
}
